<svg id="圖層_1" data-name="圖層 1" xmlns="http://www.w3.org/2000/svg" viewBox="0 0 209.18 58.851">
  <title>TOP</title>
  <g>
    <path d="M44.62,43.853c-.3-.42-.12-.63.33-.6a17.145,17.145,0,0,0,2.49-.12,38.479,38.479,0,0,1,2.28-3.72c.27-.39.57-.36.72,0a4.094,4.094,0,0,1-.39,3.39,1.879,1.879,0,0,1,1.86.9c.21.36.09.57-.36.57a8.951,8.951,0,0,0-2.34.12c-1.17,2.01-2.88,4.92-4.02,7.44-.99,2.19-.66,4.05.6,4.11,1.35.06,3.06-2.07,4.17-4.32.18-.36.51-.42.63,0a2.511,2.511,0,0,1-.3,1.71c-.39.87-2.37,3.51-4.77,3.42-1.979-.06-3.57-2.28-2.13-5.73.63-1.5,1.89-4.02,3.18-6.39A2.475,2.475,0,0,1,44.62,43.853Z" transform="translate(-42.82 -13.803)"/>
    <path d="M56.769,56.783c-2.52,0-3.15-1.83-2.25-4.44.99-2.91,3.6-6.03,3.12-6.3-.42-.24-3.689,1.8-5.43,4.65a39.331,39.331,0,0,0-2.91,5.7c-.12.27-.33.33-.51.12-.48-.54-.75-1.38-.12-3.18,1.05-3,7.29-13.56,9.719-16.589.27-.36.57-.33.72.03.39.87.3,2.37-.84,4.26-.72,1.2-2.31,3.63-3.6,5.64,1.23-1.2,2.79-2.19,3.6-2.1a2.111,2.111,0,0,1,1.17,3.15c-.66,1.32-2.1,3.51-2.79,5.07-.75,1.74-.6,3.15.51,3.09,1.229-.06,2.88-2.22,3.81-4.14a.287.287,0,0,1,.54-.03,2.305,2.305,0,0,1-.3,1.86C60.369,55.283,58.539,56.783,56.769,56.783Z" transform="translate(-42.82 -13.803)"/>
    <path d="M64.659,55.913c2.49.12,4.68-2.28,5.97-4.26.15-.24.39-.24.51.03a2.433,2.433,0,0,1-.51,1.86,7.6,7.6,0,0,1-5.88,3.24c-3.81.06-5.13-3.69-3.18-7.56s5.01-5.43,6.51-4.56a5.583,5.583,0,0,1,1.77,1.56c.54.72.3,2.55-.96,4.08-1.47,1.8-3.48,2.58-5.58.87C62.349,53.933,63.069,55.823,64.659,55.913Zm2.49-6.9c.96-1.26,1.62-2.82,1.2-3.15-.63-.51-3.12,1.29-4.53,4.14-.09.18-.18.36-.24.51C65.049,51.443,66.279,50.153,67.149,49.013Z" transform="translate(-42.82 -13.803)"/>
  </g>
  <g>
    <path d="M89.789,18.842h9.938a23.331,23.331,0,0,1,6.2.633,6.928,6.928,0,0,1,3.258,1.828A6.277,6.277,0,0,1,110.66,24.2a25.917,25.917,0,0,1,.387,5.262v3.3a13.766,13.766,0,0,1-.75,5.3,5.134,5.134,0,0,1-2.754,2.555,13.027,13.027,0,0,1-5.238.891H99.656V56.787H89.789Zm9.867,6.492V34.99q.422.023.727.023a2.282,2.282,0,0,0,1.887-.668,4.911,4.911,0,0,0,.527-2.777V28.451a3.657,3.657,0,0,0-.609-2.531A3.823,3.823,0,0,0,99.656,25.334Z" transform="translate(-42.82 -13.803)"/>
    <path d="M123.482,18.842h16.453v7.594H133.35v7.2h6.164V40.85H133.35v8.344h7.242v7.594H123.482Z" transform="translate(-42.82 -13.803)"/>
    <path d="M170.084,18.842l5.643,37.945H165.643l-.529-6.82h-3.53l-.593,6.82h-10.2l5.033-37.945Zm-5.229,24.4q-.749-6.447-1.5-15.937-1.508,10.9-1.894,15.937Z" transform="translate(-42.82 -13.803)"/>
    <path d="M187,18.842h6.984a53.4,53.4,0,0,1,9.457.539,6.51,6.51,0,0,1,4.031,2.754q1.559,2.215,1.559,7.066,0,4.43-1.1,5.953T203.6,36.982a7.413,7.413,0,0,1,3.938,1.945,5.809,5.809,0,0,1,1.254,2.238,35.351,35.351,0,0,1,.246,5.613V56.787H199.87V44.178q0-3.047-.48-3.773t-2.52-.727V56.787H187Zm9.867,6.492v8.437a4.343,4.343,0,0,0,2.332-.457q.668-.457.668-2.965V28.264a3.163,3.163,0,0,0-.645-2.367A3.666,3.666,0,0,0,196.87,25.334Z" transform="translate(-42.82 -13.803)"/>
    <path d="M232.321,18.842V49.193h6v7.594H222.454V18.842Z" transform="translate(-42.82 -13.803)"/>
  </g>
</svg>
